<?xml version="1.0" encoding="iso-8859-1"?>
<!-- Generator: Adobe Illustrator 19.0.0, SVG Export Plug-In . SVG Version: 6.00 Build 0)  -->
<svg version="1.1" id="Layer_1" xmlns="http://www.w3.org/2000/svg" xmlns:xlink="http://www.w3.org/1999/xlink" x="0px" y="0px"
	 viewBox="0 0 512 512" style="enable-background:new 0 0 512 512;" xml:space="preserve">
<polyline style="fill:#EAC36E;" points="275.963,456.807 329.982,512 275.963,512 236.037,512 182.018,512 236.037,456.807 "/>
<rect x="236.037" y="264.537" style="fill:#FCD577;" width="39.927" height="247.463"/>
<rect x="236.037" y="264.537" style="fill:#EAC36E;" width="39.927" height="39.927"/>
<polygon style="fill:#CFDCE5;" points="451.523,11.743 488.514,11.743 488.514,281.835 23.486,281.835 23.486,11.743 60.477,11.743 
	"/>
<g>
	<polyline style="fill:#DCE8EF;" points="111.56,29.358 160.881,281.835 23.486,281.835 72.807,29.358 	"/>
	<polyline style="fill:#DCE8EF;" points="439.193,29.358 488.514,281.835 351.119,281.835 400.44,29.358 	"/>
	<polyline style="fill:#DCE8EF;" points="275.376,29.358 324.697,281.835 187.303,281.835 236.624,29.358 	"/>
</g>
<g>
	<path style="fill:#FCD577;" d="M123.89,29.358H60.477V13.675C60.477,6.122,66.599,0,74.152,0h36.064
		c7.552,0,13.675,6.122,13.675,13.675v15.683H123.89z"/>
	<path style="fill:#FCD577;" d="M287.706,29.358h-63.413V13.675C224.294,6.122,230.415,0,237.968,0h36.064
		c7.552,0,13.674,6.122,13.674,13.675V29.358z"/>
	<path style="fill:#FCD577;" d="M451.523,29.358H388.11V13.675C388.11,6.122,394.232,0,401.785,0h36.064
		c7.552,0,13.675,6.122,13.675,13.675v15.683H451.523z"/>
</g>
<g>
</g>
<g>
</g>
<g>
</g>
<g>
</g>
<g>
</g>
<g>
</g>
<g>
</g>
<g>
</g>
<g>
</g>
<g>
</g>
<g>
</g>
<g>
</g>
<g>
</g>
<g>
</g>
<g>
</g>
</svg>
